<?xml version="1.0" encoding="UTF-8" standalone="no"?>
<svg
   xmlns:dc="http://purl.org/dc/elements/1.1/"
   xmlns:cc="http://web.resource.org/cc/"
   xmlns:rdf="http://www.w3.org/1999/02/22-rdf-syntax-ns#"
   xmlns:svg="http://www.w3.org/2000/svg"
   xmlns="http://www.w3.org/2000/svg"
   xmlns:sodipodi="http://inkscape.sourceforge.net/DTD/sodipodi-0.dtd"
   xmlns:inkscape="http://www.inkscape.org/namespaces/inkscape"
   preserveAspectRatio="xMinYMin meet"
   width="650pt"
   height="749pt"
   viewBox="0 0 660 520"
   version="1.0"
   id="svg2"
   sodipodi:version="0.32"
   inkscape:version="0.43"
   sodipodi:docname="Newton_optimization_vs_grad_descent.svg"
   sodipodi:docbase="/home/aoleg/diverse/wiki">
  <metadata
     id="metadata116">
    <rdf:RDF>
      <cc:Work
         rdf:about="">
        <dc:format>image/svg+xml</dc:format>
        <dc:type
           rdf:resource="http://purl.org/dc/dcmitype/StillImage" />
      </cc:Work>
    </rdf:RDF>
  </metadata>
  <defs
     id="defs114">
    <marker
       inkscape:stockid="Arrow2Mend"
       orient="auto"
       refY="0.0"
       refX="0.0"
       id="Arrow2Mend"
       style="overflow:visible;">
      <path
         id="path2448"
         style="font-size:12.0;fill-rule:evenodd;stroke-width:0.62500000;stroke-linejoin:round;"
         d="M 8.7185878,4.0337352 L -2.2072895,0.016013256 L 8.7185884,-4.0017078 C 6.9730900,-1.6296469 6.9831476,1.6157441 8.7185878,4.0337352 z "
         transform="scale(0.6) rotate(180) translate(-5,0)" />
    </marker>
    <marker
       inkscape:stockid="Arrow2Send"
       orient="auto"
       refY="0.0"
       refX="0.0"
       id="Arrow2Send"
       style="overflow:visible;">
      <path
         id="path2442"
         style="font-size:12.0;fill-rule:evenodd;stroke-width:0.62500000;stroke-linejoin:round;"
         d="M 8.7185878,4.0337352 L -2.2072895,0.016013256 L 8.7185884,-4.0017078 C 6.9730900,-1.6296469 6.9831476,1.6157441 8.7185878,4.0337352 z "
         transform="scale(0.3) rotate(180) translate(-5,0)" />
    </marker>
    <marker
       inkscape:stockid="Arrow1Lend"
       orient="auto"
       refY="0.0"
       refX="0.0"
       id="Arrow1Lend"
       style="overflow:visible;">
      <path
         id="path2472"
         d="M 0.0,0.0 L 5.0,-5.0 L -12.5,0.0 L 5.0,5.0 L 0.0,0.0 z "
         style="fill-rule:evenodd;stroke:#000000;stroke-width:1.0pt;marker-start:none;"
         transform="scale(0.8) rotate(180)" />
    </marker>
  </defs>
  <sodipodi:namedview
     inkscape:window-height="541"
     inkscape:window-width="749"
     inkscape:pageshadow="2"
     inkscape:pageopacity="0.0"
     borderopacity="1.0"
     bordercolor="#666666"
     pagecolor="#ffffff"
     id="base"
     inkscape:zoom="0.25428648"
     inkscape:cx="587.04783"
     inkscape:cy="409.97685"
     inkscape:window-x="42"
     inkscape:window-y="84"
     inkscape:current-layer="g87"
     showgrid="true" />
  <desc
     id="desc4">Matlab Figure Converted by PLOT2SVG written by Juerg Schwizer</desc>
  <g
     id="g8"
     transform="matrix(2.201423,0,0,1.783035,-424.7213,-65.4907)">
    <clipPath
       id="ID000000">
      <rect
         x="85.800003"
         y="39"
         width="511.5"
         height="423.79999"
         id="rect11" />
    </clipPath>
    <g
       id="g13">
      <g
         clip-path="url(#ID000000)"
         id="g15">
        <polyline
           points="479.471,222.418 479.450,222.247 479.015,218.969 478.547,215.691 478.046,212.413 477.511,209.135 476.941,205.857 476.336,202.579 476.193,201.845 475.684,199.301 474.991,196.023 474.260,192.745 473.491,189.467 472.915,187.131 472.677,186.189 471.809,182.911 470.900,179.633 469.949,176.355 469.637,175.327 468.939,173.077 467.877,169.799 466.770,166.521 466.359,165.354 465.599,163.243 464.371,159.965 463.095,156.687 463.081,156.652 461.737,153.409 460.329,150.131 459.803,148.953 458.845,146.853 457.295,143.575 456.525,142.005 455.669,140.297 453.968,137.019 453.247,135.678 452.183,133.741 450.320,130.463 449.969,129.866 448.356,127.185 446.691,124.504 446.311,123.907 444.158,120.629 443.413,119.532 441.899,117.351 440.135,114.889 439.537,114.073 437.056,110.795 436.857,110.541 434.438,107.517 433.579,106.476 431.689,104.239 430.301,102.646 428.797,100.961 427.023,99.033 425.749,97.683 423.745,95.622 422.532,94.405 420.467,92.397 419.128,91.127 417.189,89.343 415.521,87.849 413.911,86.449 411.692,84.571 410.633,83.701 407.619,81.293 407.355,81.088 404.077,78.621 403.248,78.015 400.799,76.278 398.560,74.737 397.521,74.043 394.243,71.923 393.501,71.459 390.965,69.920 388.002,68.181 387.687,68.001 384.409,66.203 381.950,64.903 381.131,64.482 377.853,62.867 375.226,61.625 374.575,61.326 371.297,59.888 368.019,58.513 367.601,58.347 364.741,57.241 361.463,56.038 358.670,55.069 358.185,54.906 354.907,53.868 351.629,52.896 348.351,51.989 347.577,51.791 345.073,51.170 341.795,50.423 338.517,49.743 335.239,49.131 331.961,48.588 331.443,48.513 328.683,48.128 325.405,47.739 322.127,47.420 318.849,47.172 315.571,46.997 312.293,46.895 309.015,46.867 305.737,46.916 302.459,47.041 299.181,47.246 295.903,47.530 292.625,47.895 289.347,48.343 288.294,48.513 286.069,48.888 282.791,49.528 279.513,50.258 276.235,51.081 273.694,51.791 272.957,52.005 269.679,53.056 266.401,54.208 264.149,55.069 263.123,55.478 259.845,56.892 256.719,58.347 256.567,58.421 253.289,60.127 250.601,61.625 250.011,61.969 246.733,64.003 245.368,64.903 243.455,66.225 240.784,68.181 240.177,68.647 236.899,71.310 236.725,71.459 233.621,74.251 233.108,74.737 230.343,77.493 229.845,78.015 227.065,81.084 226.885,81.293 224.204,84.571 223.787,85.110 221.764,87.849 220.509,89.653 219.527,91.127 217.474,94.405 217.231,94.818 215.614,97.683 213.953,100.833 213.889,100.961 212.335,104.239 210.893,107.517 210.675,108.050 209.596,110.795 208.405,114.073 207.397,117.094 207.315,117.351 206.347,120.629 205.467,123.907 204.671,127.185 204.119,129.713 203.962,130.463 203.346,133.741 202.804,137.019 202.333,140.297 201.931,143.575 201.596,146.853 201.325,150.131 201.116,153.409 200.966,156.687 200.875,159.965 200.841,162.987 200.839,163.243 200.841,163.765 200.856,166.521 200.925,169.799 201.044,173.077 201.211,176.355 201.424,179.633 201.681,182.911 201.982,186.189 202.323,189.467 202.703,192.745 203.122,196.023 203.577,199.301 204.067,202.579 204.119,202.905 204.604,205.857 205.176,209.135 205.780,212.413 206.414,215.691 207.077,218.969 207.397,220.486 207.778,222.247 208.517,225.525 209.281,228.803 210.070,232.081 210.675,234.516 210.890,235.359 211.750,238.637 212.632,241.914 213.536,245.192 213.953,246.669 214.475,248.470 215.445,251.748 216.435,255.026 217.231,257.616 217.449,258.304 218.503,261.582 219.573,264.860 220.509,267.683 220.664,268.138 221.798,271.416 222.946,274.694 223.787,277.066 224.117,277.972 225.326,281.250 226.548,284.528 227.065,285.898 227.804,287.806 229.086,291.084 230.343,294.273 230.380,294.362 231.722,297.640 233.074,300.918 233.621,302.233 234.460,304.196 235.871,307.474 236.899,309.845 237.303,310.752 238.775,314.030 240.177,317.138 240.256,317.308 241.789,320.586 243.328,323.864 243.455,324.133 244.918,327.142 246.519,330.420 246.733,330.856 248.169,333.698 249.832,336.976 250.011,337.327 251.549,340.254 253.275,343.532 253.289,343.559 255.063,346.810 256.567,349.558 256.866,350.088 258.723,353.366 259.845,355.340 260.609,356.644 262.537,359.922 263.123,360.914 264.514,363.200 266.401,366.290 266.520,366.478 268.595,369.756 269.679,371.462 270.709,373.034 272.865,376.312 272.957,376.452 275.099,379.590 276.235,381.248 277.380,382.868 279.513,385.873 279.714,386.146 282.131,389.424 282.791,390.314 284.620,392.702 286.069,394.586 287.179,395.980 289.347,398.692 289.816,399.258 292.543,402.536 292.625,402.634 295.385,405.814 295.903,406.408 298.331,409.092 299.181,410.026 301.395,412.370 302.459,413.489 304.591,415.648 305.737,416.800 307.936,418.926 309.015,419.962 311.449,422.204 312.293,422.976 315.151,425.482 315.571,425.847 318.849,428.574 319.083,428.760 322.127,431.156 323.304,432.038 325.405,433.600 327.832,435.316 328.683,435.912 331.961,438.086 332.773,438.594 335.239,440.123 338.235,441.872 338.517,442.035 341.795,443.804 344.466,445.150 345.073,445.453 348.351,446.961 351.629,448.351 351.829,448.428 354.907,449.598 358.185,450.722 361.410,451.706 361.463,451.722 364.741,452.578 368.019,453.307 371.297,453.905 374.575,454.370 377.853,454.698 381.131,454.887 384.409,454.933 387.687,454.832 390.965,454.582 394.243,454.177 397.521,453.616 400.799,452.892 404.077,452.003 405.002,451.706 407.355,450.927 410.633,449.666 413.446,448.428 413.911,448.217 417.189,446.548 419.646,445.150 420.467,444.668 423.745,442.548 424.699,441.872 427.023,440.173 429.007,438.594 430.301,437.530 432.791,435.316 433.579,434.592 436.162,432.038 436.857,431.328 439.205,428.760 440.135,427.707 441.979,425.482 443.413,423.692 444.535,422.204 446.691,419.241 446.908,418.926 449.089,415.648 449.969,414.279 451.131,412.370 453.056,409.092 453.247,408.755 454.836,405.814 456.525,402.564 456.539,402.536 458.112,399.258 459.624,395.980 459.803,395.580 461.030,392.702 462.376,389.424 463.081,387.643 463.648,386.146 464.848,382.868 466.000,379.590 466.359,378.533 467.082,376.312 468.109,373.034 469.096,369.756 469.637,367.888 470.029,366.478 470.908,363.200 471.751,359.922 472.558,356.644 472.915,355.133 473.317,353.366 474.033,350.088 474.717,346.810 475.369,343.532 475.991,340.254 476.193,339.139 476.571,336.976 477.116,333.698 477.633,330.420 478.122,327.142 478.583,323.864 479.016,320.586 479.423,317.308 479.471,316.896 479.793,314.030 480.136,310.752 480.454,307.474 480.746,304.196 481.012,300.918 481.252,297.640 481.467,294.362 481.657,291.084 481.821,287.806 481.959,284.528 482.071,281.250 482.158,277.972 482.219,274.694 482.253,271.416 482.261,268.138 482.243,264.860 482.198,261.582 482.125,258.304 482.026,255.026 481.898,251.748 481.743,248.470 481.560,245.192 481.347,241.914 481.106,238.637 480.836,235.359 480.535,232.081 480.204,228.803 479.843,225.525 479.471,222.418 "
           id="polyline17"
           style="fill:none;stroke:#0080cc;stroke-width:2pt;stroke-dasharray:none" />
        <g
           id="g19" />
      </g>
      <g
         clip-path="url(#ID000000)"
         id="g21">
        <polyline
           points="463.081,223.451 462.943,222.247 462.531,218.969 462.081,215.691 461.593,212.413 461.067,209.135 460.501,205.857 459.895,202.579 459.803,202.113 459.234,199.301 458.528,196.023 457.779,192.745 456.987,189.467 456.525,187.658 456.141,186.189 455.236,182.911 454.285,179.633 453.287,176.355 453.247,176.228 452.214,173.077 451.090,169.799 449.969,166.670 449.914,166.521 448.654,163.243 447.342,159.965 446.691,158.408 445.955,156.687 444.494,153.409 443.413,151.077 442.964,150.131 441.344,146.853 440.135,144.497 439.651,143.575 437.860,140.297 436.857,138.526 435.982,137.019 434.009,133.741 433.579,133.052 431.922,130.463 430.301,128.015 429.737,127.185 427.432,123.907 427.023,123.346 424.993,120.629 423.745,119.014 422.426,117.351 420.467,114.961 419.719,114.073 417.189,111.166 416.857,110.795 413.911,107.608 413.824,107.517 410.633,104.268 410.604,104.239 407.355,101.129 407.174,100.961 404.077,98.174 403.515,97.683 400.799,95.388 399.599,94.405 397.521,92.757 395.398,91.127 394.243,90.267 390.965,87.910 390.876,87.849 387.687,85.708 385.929,84.571 384.409,83.618 381.131,81.640 380.530,81.293 377.853,79.793 374.575,78.032 374.542,78.015 371.297,76.405 368.019,74.852 367.762,74.737 364.741,73.423 361.463,72.072 359.882,71.459 358.185,70.821 354.907,69.665 351.629,68.585 350.304,68.181 348.351,67.604 345.073,66.712 341.795,65.899 338.517,65.164 337.208,64.903 335.239,64.523 331.961,63.970 328.683,63.498 325.405,63.108 322.127,62.801 318.849,62.579 315.571,62.444 312.293,62.396 309.015,62.439 305.737,62.572 302.459,62.799 299.181,63.122 295.903,63.541 292.625,64.058 289.347,64.677 288.317,64.903 286.069,65.418 282.791,66.277 279.513,67.248 276.694,68.181 276.235,68.340 272.957,69.591 269.679,70.966 268.601,71.459 266.401,72.512 263.123,74.215 262.191,74.737 259.845,76.116 256.843,78.015 256.567,78.198 253.289,80.529 252.281,81.293 250.011,83.107 248.289,84.571 246.733,85.967 244.755,87.849 243.455,89.158 241.605,91.127 240.177,92.739 238.777,94.405 236.899,96.783 236.223,97.683 233.913,100.961 233.621,101.403 231.837,104.239 230.343,106.787 229.935,107.517 228.224,110.795 227.065,113.194 226.659,114.073 225.256,117.351 223.968,120.629 223.787,121.131 222.827,123.907 221.795,127.185 220.861,130.463 220.509,131.836 220.040,133.741 219.320,137.019 218.685,140.297 218.132,143.575 217.659,146.853 217.262,150.131 217.231,150.440 216.949,153.409 216.705,156.687 216.527,159.965 216.412,163.243 216.359,166.521 216.365,169.799 216.428,173.077 216.545,176.355 216.715,179.633 216.935,182.911 217.203,186.189 217.231,186.484 217.527,189.467 217.898,192.745 218.313,196.023 218.770,199.301 219.268,202.579 219.804,205.857 220.378,209.135 220.509,209.837 221.003,212.413 221.667,215.691 222.364,218.969 223.094,222.247 223.787,225.238 223.856,225.525 224.670,228.803 225.512,232.081 226.382,235.359 227.065,237.855 227.285,238.637 228.235,241.914 229.209,245.192 230.206,248.470 230.343,248.911 231.253,251.748 232.325,255.026 233.418,258.304 233.621,258.902 234.559,261.582 235.725,264.860 236.899,268.113 236.909,268.138 238.148,271.416 239.403,274.694 240.177,276.689 240.690,277.972 242.016,281.250 243.356,284.528 243.455,284.768 244.751,287.806 246.161,291.084 246.733,292.401 247.611,294.362 249.091,297.640 250.011,299.659 250.602,300.918 252.153,304.196 253.289,306.580 253.728,307.474 255.351,310.752 256.567,313.193 256.997,314.030 258.693,317.308 259.845,319.524 260.415,320.586 262.185,323.864 263.123,325.592 263.991,327.142 265.837,330.420 266.401,331.416 267.736,333.698 269.659,336.976 269.679,337.011 271.659,340.254 272.957,342.374 273.690,343.532 275.774,346.810 276.235,347.532 277.925,350.088 279.513,352.483 280.119,353.366 282.379,356.644 282.791,357.239 284.717,359.922 286.069,361.799 287.115,363.200 289.347,366.179 289.579,366.478 292.141,369.756 292.625,370.373 294.795,373.034 295.903,374.388 297.541,376.312 299.181,378.231 300.391,379.590 302.459,381.904 303.357,382.868 305.737,385.410 306.457,386.146 309.015,388.751 309.707,389.424 312.293,391.929 313.130,392.702 315.571,394.946 316.752,395.980 318.849,397.806 320.604,399.258 322.127,400.510 324.725,402.536 325.405,403.063 328.683,405.461 329.197,405.814 331.961,407.702 334.130,409.092 335.239,409.798 338.517,411.742 339.660,412.370 341.795,413.534 345.073,415.181 346.093,415.648 348.351,416.674 351.629,418.019 354.109,418.926 354.907,419.216 358.185,420.253 361.463,421.143 364.741,421.880 366.573,422.204 368.019,422.457 371.297,422.871 374.575,423.124 377.853,423.210 381.131,423.125 384.409,422.865 387.687,422.424 388.845,422.204 390.965,421.789 394.243,420.954 397.521,419.918 400.139,418.926 400.799,418.668 404.077,417.180 407.007,415.648 407.355,415.460 410.633,413.470 412.252,412.370 413.911,411.207 416.636,409.092 417.189,408.648 420.412,405.814 420.467,405.764 423.729,402.536 423.745,402.520 426.693,399.258 427.023,398.880 429.377,395.980 430.301,394.800 431.837,392.702 433.579,390.235 434.116,389.424 436.214,386.146 436.857,385.105 438.160,382.868 439.996,379.590 440.135,379.334 441.684,376.312 443.298,373.034 443.413,372.794 444.786,369.756 446.208,366.478 446.691,365.325 447.537,363.200 448.793,359.922 449.969,356.724 449.997,356.644 451.107,353.366 452.171,350.088 453.189,346.810 453.247,346.616 454.130,343.532 455.027,340.254 455.884,336.976 456.525,334.409 456.695,333.698 457.447,330.420 458.161,327.142 458.840,323.864 459.483,320.586 459.803,318.868 460.082,317.308 460.636,314.030 461.158,310.752 461.647,307.474 462.103,304.196 462.527,300.918 462.918,297.640 463.081,296.165 463.272,294.362 463.590,291.084 463.877,287.806 464.133,284.528 464.358,281.250 464.553,277.972 464.716,274.694 464.848,271.416 464.950,268.138 465.019,264.860 465.057,261.582 465.064,258.304 465.038,255.026 464.980,251.748 464.889,248.470 464.766,245.192 464.609,241.914 464.418,238.637 464.194,235.359 463.935,232.081 463.641,228.803 463.312,225.525 463.081,223.451 "
           id="polyline23"
           style="fill:none;stroke:#0080cc;stroke-width:2pt;stroke-dasharray:none" />
        <g
           id="g25" />
      </g>
      <g
         clip-path="url(#ID000000)"
         id="g27">
        <polyline
           points="443.413,219.013 443.408,218.969 442.985,215.691 442.516,212.413 442.000,209.135 441.438,205.857 440.828,202.579 440.171,199.301 440.135,199.136 439.443,196.023 438.663,192.745 437.832,189.467 436.949,186.189 436.857,185.866 435.987,182.911 434.967,179.633 433.892,176.355 433.579,175.451 432.734,173.077 431.508,169.799 430.301,166.721 430.220,166.521 428.831,163.243 427.380,159.965 427.023,159.196 425.827,156.687 424.197,153.409 423.745,152.539 422.458,150.131 420.636,146.853 420.467,146.562 418.684,143.575 417.189,141.165 416.635,140.297 414.457,137.019 413.911,136.227 412.142,133.741 410.633,131.696 409.694,130.463 407.355,127.499 407.099,127.185 404.328,123.907 404.077,123.621 401.368,120.629 400.799,120.022 398.209,117.351 397.521,116.666 394.825,114.073 394.243,113.532 391.189,110.795 390.965,110.601 387.687,107.869 387.247,107.517 384.409,105.320 382.955,104.239 381.131,102.929 378.273,100.961 377.853,100.681 374.575,98.600 373.061,97.683 371.297,96.651 368.019,94.827 367.216,94.405 364.741,93.147 361.463,91.573 360.472,91.127 358.185,90.132 354.907,88.800 352.388,87.849 351.629,87.572 348.351,86.473 345.073,85.467 341.841,84.571 341.795,84.559 338.517,83.779 335.239,83.096 331.961,82.512 328.683,82.028 325.405,81.647 322.127,81.371 320.595,81.293 318.849,81.207 315.571,81.151 312.293,81.203 310.462,81.293 309.015,81.368 305.737,81.654 302.459,82.061 299.181,82.591 295.903,83.247 292.625,84.032 290.693,84.571 289.347,84.966 286.069,86.066 282.791,87.311 281.522,87.849 279.513,88.746 276.235,90.367 274.835,91.127 272.957,92.204 269.679,94.257 269.461,94.405 266.401,96.602 265.007,97.683 263.123,99.234 261.171,100.961 259.845,102.209 257.830,104.239 256.567,105.597 254.892,107.517 253.289,109.484 252.284,110.795 250.011,113.979 249.948,114.073 247.892,117.351 246.733,119.352 246.033,120.629 244.375,123.907 243.455,125.891 242.886,127.185 241.567,130.463 240.374,133.741 240.177,134.337 239.336,137.019 238.418,140.297 237.606,143.575 236.899,146.835 236.896,146.853 236.307,150.131 235.809,153.409 235.398,156.687 235.070,159.965 234.822,163.243 234.651,166.521 234.554,169.799 234.527,173.077 234.568,176.355 234.675,179.633 234.843,182.911 235.072,186.189 235.357,189.467 235.698,192.745 236.091,196.023 236.534,199.301 236.899,201.740 237.029,202.579 237.585,205.857 238.187,209.135 238.831,212.413 239.517,215.691 240.177,218.673 240.245,218.969 241.035,222.247 241.862,225.525 242.724,228.803 243.455,231.479 243.625,232.081 244.585,235.359 245.576,238.637 246.597,241.914 246.733,242.339 247.679,245.192 248.792,248.470 249.932,251.748 250.011,251.972 251.135,255.026 252.365,258.304 253.289,260.721 253.629,261.582 254.950,264.860 256.290,268.138 256.567,268.805 257.690,271.416 259.119,274.694 259.845,276.338 260.592,277.972 262.109,281.250 263.123,283.416 263.662,284.528 265.269,287.806 266.401,290.095 266.908,291.084 268.604,294.362 269.679,296.421 270.338,297.640 272.126,300.918 272.957,302.430 273.964,304.196 275.844,307.474 276.235,308.150 277.797,310.752 279.513,313.599 279.783,314.030 281.852,317.308 282.791,318.790 283.975,320.586 286.069,323.751 286.147,323.864 288.420,327.142 289.347,328.474 290.758,330.420 292.625,332.986 293.166,333.698 295.664,336.976 295.903,337.288 298.276,340.254 299.181,341.382 300.986,343.532 302.459,345.280 303.809,346.810 305.737,348.987 306.760,350.088 309.015,352.505 309.859,353.366 312.293,355.838 313.130,356.644 315.571,358.987 316.601,359.922 318.849,361.956 320.306,363.200 322.127,364.748 324.292,366.478 325.405,367.364 328.612,369.756 328.683,369.809 331.961,372.070 333.469,373.034 335.239,374.161 338.517,376.082 338.949,376.312 341.795,377.820 345.073,379.392 345.539,379.590 348.351,380.778 351.629,381.991 354.403,382.868 354.907,383.027 358.185,383.870 361.463,384.531 364.741,385.002 368.019,385.277 371.297,385.351 374.575,385.216 377.853,384.865 381.131,384.290 384.409,383.484 386.348,382.868 387.687,382.429 390.965,381.109 394.108,379.590 394.243,379.523 397.521,377.626 399.500,376.312 400.799,375.420 403.875,373.034 404.077,372.872 407.355,369.942 407.543,369.756 410.633,366.596 410.738,366.478 413.565,363.200 413.911,362.784 416.101,359.922 417.189,358.444 418.417,356.644 420.467,353.517 420.559,353.366 422.492,350.088 423.745,347.872 424.307,346.810 425.978,343.532 427.023,341.392 427.546,340.254 428.994,336.976 430.301,333.877 430.372,333.698 431.629,330.420 432.827,327.142 433.579,324.988 433.951,323.864 434.988,320.586 435.974,317.308 436.857,314.212 436.906,314.030 437.755,310.752 438.556,307.474 439.311,304.196 440.021,300.918 440.135,300.358 440.664,297.640 441.260,294.362 441.814,291.084 442.325,287.806 442.795,284.528 443.223,281.250 443.413,279.646 443.603,277.972 443.936,274.694 444.229,271.416 444.482,268.138 444.696,264.860 444.870,261.582 445.004,258.304 445.097,255.026 445.151,251.748 445.164,248.470 445.136,245.192 445.067,241.914 444.957,238.637 444.805,235.359 444.611,232.081 444.375,228.803 444.096,225.525 443.774,222.247 443.413,219.013 "
           id="polyline29"
           style="fill:none;stroke:#0080cc;stroke-width:2pt;stroke-dasharray:none" />
        <g
           id="g31" />
      </g>
      <g
         clip-path="url(#ID000000)"
         id="g33">
        <polyline
           points="427.023,209.009 426.481,205.857 425.862,202.579 425.186,199.301 424.452,196.023 423.745,193.096 423.657,192.745 422.776,189.467 421.834,186.189 420.830,182.911 420.467,181.799 419.737,179.633 418.567,176.355 417.331,173.077 417.189,172.721 415.985,169.799 414.564,166.521 413.911,165.088 413.042,163.243 411.423,159.965 410.633,158.441 409.694,156.687 407.858,153.409 407.355,152.551 405.888,150.131 404.077,147.266 403.807,146.853 401.566,143.575 400.799,142.498 399.175,140.297 397.521,138.143 396.625,137.019 394.243,134.144 393.896,133.741 390.965,130.466 390.962,130.463 387.788,127.185 387.687,127.084 384.409,123.955 384.357,123.907 381.131,121.068 380.610,120.629 377.853,118.394 376.503,117.351 374.575,115.914 371.978,114.073 371.297,113.607 368.019,111.486 366.887,110.795 364.741,109.531 361.463,107.714 361.082,107.517 358.185,106.072 354.907,104.549 354.184,104.239 351.629,103.185 348.351,101.945 345.484,100.961 345.073,100.825 341.795,99.859 338.517,99.009 335.239,98.276 332.058,97.683 331.961,97.666 328.683,97.199 325.405,96.855 322.127,96.636 318.849,96.546 315.571,96.587 312.293,96.763 309.015,97.078 305.737,97.536 304.932,97.683 302.459,98.161 299.181,98.951 295.903,99.904 292.807,100.961 292.625,101.027 289.347,102.384 286.069,103.928 285.479,104.239 282.791,105.742 279.938,107.517 279.513,107.798 276.235,110.185 275.469,110.795 272.957,112.932 271.722,114.073 269.679,116.099 268.510,117.351 266.401,119.785 265.720,120.629 263.275,123.907 263.123,124.128 261.155,127.185 259.845,129.407 259.261,130.463 257.604,133.741 256.567,136.005 256.129,137.019 254.851,140.297 253.710,143.575 253.289,144.935 252.728,146.853 251.887,150.131 251.160,153.409 250.543,156.687 250.032,159.965 250.011,160.129 249.638,163.243 249.338,166.521 249.125,169.799 248.997,173.077 248.950,176.355 248.979,179.633 249.083,182.911 249.257,186.189 249.499,189.467 249.805,192.745 250.011,194.585 250.179,196.023 250.622,199.301 251.124,202.579 251.681,205.857 252.290,209.135 252.950,212.413 253.289,213.980 253.673,215.691 254.457,218.969 255.285,222.247 256.155,225.525 256.567,227.002 257.087,228.803 258.075,232.081 259.100,235.359 259.845,237.657 260.174,238.637 261.314,241.914 262.485,245.192 263.123,246.927 263.711,248.470 264.995,251.748 266.305,255.026 266.401,255.261 267.696,258.304 269.115,261.582 269.679,262.860 270.596,264.860 272.125,268.138 272.957,269.895 273.706,271.416 275.345,274.694 276.235,276.451 277.037,277.972 278.787,281.250 279.513,282.595 280.601,284.528 282.463,287.806 282.791,288.377 284.414,291.084 286.069,293.827 286.406,294.362 288.493,297.640 289.347,298.972 290.651,300.918 292.625,303.847 292.872,304.196 295.204,307.474 295.903,308.451 297.629,310.752 299.181,312.810 300.147,314.030 302.459,316.937 302.770,317.308 305.529,320.586 305.737,320.832 308.442,323.864 309.015,324.505 311.512,327.142 312.293,327.964 314.767,330.420 315.571,331.215 318.241,333.698 318.849,334.261 321.976,336.976 322.127,337.107 325.405,339.746 326.085,340.254 328.683,342.187 330.643,343.532 331.961,344.433 335.239,346.484 335.817,346.810 338.517,348.328 341.795,349.984 342.032,350.088 345.073,351.426 348.351,352.672 350.537,353.366 351.629,353.712 354.907,354.534 358.185,355.144 361.463,355.533 364.741,355.693 368.019,355.615 371.297,355.290 374.575,354.708 377.853,353.857 379.290,353.366 381.131,352.715 384.409,351.265 386.611,350.088 387.687,349.492 390.965,347.362 391.703,346.810 394.243,344.840 395.729,343.532 397.521,341.893 399.123,340.254 400.799,338.470 402.067,336.976 404.077,334.508 404.678,333.698 407.013,330.420 407.355,329.920 409.102,327.142 410.633,324.590 411.036,323.864 412.781,320.586 413.911,318.357 414.406,317.308 415.885,314.030 417.189,310.982 417.281,310.752 418.536,307.474 419.721,304.196 420.467,302.014 420.820,300.918 421.819,297.640 422.757,294.362 423.634,291.084 423.745,290.643 424.419,287.806 425.144,284.528 425.814,281.250 426.428,277.972 426.989,274.694 427.023,274.476 427.476,271.416 427.911,268.138 428.295,264.860 428.628,261.582 428.911,258.304 429.143,255.026 429.326,251.748 429.457,248.470 429.538,245.192 429.569,241.914 429.549,238.637 429.478,235.359 429.356,232.081 429.182,228.803 428.957,225.525 428.680,222.247 428.350,218.969 427.968,215.691 427.533,212.413 427.044,209.135 427.023,209.009 "
           id="polyline35"
           style="fill:none;stroke:#0080cc;stroke-width:2pt;stroke-dasharray:none" />
        <g
           id="g37" />
      </g>
      <g
         clip-path="url(#ID000000)"
         id="g39">
        <polyline
           points="410.633,225.911 410.618,225.525 410.426,222.247 410.164,218.969 409.834,215.691 409.435,212.413 408.967,209.135 408.429,205.857 407.823,202.579 407.355,200.318 407.136,199.301 406.355,196.023 405.501,192.745 404.573,189.467 404.077,187.848 403.548,186.189 402.422,182.911 401.219,179.633 400.799,178.565 399.896,176.355 398.472,173.077 397.521,171.012 396.939,169.799 395.274,166.521 394.243,164.598 393.486,163.243 391.557,159.965 390.965,159.010 389.463,156.687 387.687,154.067 387.220,153.409 384.783,150.131 384.409,149.651 382.125,146.853 381.131,145.687 379.239,143.575 377.853,142.094 376.084,140.297 374.575,138.829 372.611,137.019 371.297,135.858 368.760,133.741 368.019,133.148 364.741,130.682 364.429,130.463 361.463,128.464 359.427,127.185 358.185,126.436 354.907,124.611 353.525,123.907 351.629,122.979 348.351,121.525 346.097,120.629 345.073,120.238 341.795,119.141 338.517,118.195 335.239,117.404 334.963,117.351 331.961,116.802 328.683,116.361 325.405,116.082 322.127,115.972 318.849,116.036 315.571,116.280 312.293,116.709 309.015,117.329 308.928,117.351 305.737,118.194 302.459,119.278 299.181,120.588 299.094,120.629 295.903,122.225 292.997,123.907 292.625,124.139 289.347,126.451 288.420,127.185 286.069,129.198 284.738,130.463 282.791,132.477 281.680,133.741 279.513,136.440 279.087,137.019 276.891,140.297 276.235,141.381 275.010,143.575 273.372,146.853 272.957,147.783 271.986,150.131 270.793,153.409 269.759,156.687 269.679,156.980 268.921,159.965 268.223,163.243 267.654,166.521 267.207,169.799 266.877,173.077 266.657,176.355 266.542,179.633 266.528,182.911 266.608,186.189 266.779,189.467 267.035,192.745 267.373,196.023 267.788,199.301 268.276,202.579 268.834,205.857 269.458,209.135 269.679,210.188 270.167,212.413 270.950,215.691 271.790,218.969 272.685,222.247 272.957,223.182 273.667,225.525 274.714,228.803 275.808,232.081 276.235,233.303 276.985,235.359 278.227,238.637 279.510,241.914 279.513,241.922 280.902,245.192 282.330,248.470 282.791,249.498 283.848,251.748 285.423,255.026 286.069,256.340 287.082,258.304 288.806,261.582 289.347,262.591 290.626,264.860 292.500,268.138 292.625,268.353 294.503,271.416 295.903,273.672 296.572,274.694 298.745,277.972 299.181,278.622 301.046,281.250 302.459,283.223 303.449,284.528 305.737,287.518 305.972,287.806 308.663,291.084 309.015,291.509 311.532,294.362 312.293,295.219 314.592,297.640 315.571,298.664 317.884,300.918 318.849,301.853 321.459,304.196 322.127,304.792 325.387,307.474 325.405,307.489 328.683,309.933 329.895,310.752 331.961,312.141 335.090,314.030 335.239,314.120 338.517,315.843 341.723,317.308 341.795,317.341 345.073,318.578 348.351,319.573 351.629,320.317 353.474,320.586 354.907,320.794 358.185,320.995 361.463,320.915 364.339,320.586 364.741,320.538 368.019,319.838 371.297,318.804 374.575,317.420 374.787,317.308 377.853,315.625 380.244,314.030 381.131,313.411 384.368,310.752 384.409,310.717 387.680,307.474 387.687,307.467 390.463,304.196 390.965,303.572 392.878,300.918 394.243,298.913 395.028,297.640 396.939,294.362 397.521,293.305 398.639,291.084 400.187,287.806 400.799,286.425 401.574,284.528 402.827,281.250 403.987,277.972 404.077,277.699 404.998,274.694 405.922,271.416 406.765,268.138 407.355,265.609 407.518,264.860 408.166,261.582 408.742,258.304 409.245,255.026 409.677,251.748 410.038,248.470 410.329,245.192 410.550,241.914 410.633,240.139 410.699,238.637 410.777,235.359 410.790,232.081 410.737,228.803 410.633,225.911 "
           id="polyline41"
           style="fill:none;stroke:#0080cc;stroke-width:2pt;stroke-dasharray:none" />
        <g
           id="g43" />
      </g>
      <g
         clip-path="url(#ID000000)"
         id="g45">
        <polyline
           points="384.409,209.261 384.394,209.135 383.878,205.857 383.253,202.579 382.520,199.301 381.680,196.023 381.131,194.133 380.704,192.745 379.575,189.467 378.337,186.189 377.853,185.023 376.922,182.911 375.357,179.633 374.575,178.118 373.606,176.355 371.674,173.077 371.297,172.481 369.484,169.799 368.019,167.761 367.062,166.521 364.741,163.688 364.347,163.243 361.463,160.169 361.255,159.965 358.185,157.121 357.672,156.687 354.907,154.475 353.432,153.409 351.629,152.174 348.351,150.168 348.281,150.131 345.073,148.516 341.795,147.102 341.085,146.853 338.517,145.997 335.239,145.154 331.961,144.569 328.683,144.256 325.405,144.227 322.127,144.499 318.849,145.088 315.571,146.012 313.400,146.853 312.293,147.325 309.015,149.115 307.503,150.131 305.737,151.451 303.539,153.409 302.459,154.491 300.573,156.687 299.181,158.533 298.234,159.965 296.355,163.243 295.903,164.163 294.870,166.521 293.668,169.799 292.690,173.077 292.625,173.349 291.979,176.355 291.452,179.633 291.093,182.911 290.891,186.189 290.837,189.467 290.920,192.745 291.133,196.023 291.468,199.301 291.915,202.579 292.469,205.857 292.625,206.632 293.161,209.135 293.963,212.413 294.858,215.691 295.838,218.969 295.903,219.169 296.975,222.247 298.196,225.525 299.181,228.016 299.513,228.803 300.982,232.081 302.459,235.240 302.519,235.359 304.244,238.637 305.737,241.382 306.049,241.914 308.040,245.192 309.015,246.751 310.177,248.470 312.293,251.526 312.461,251.748 314.995,255.026 315.571,255.755 317.771,258.304 318.849,259.529 320.837,261.582 322.127,262.891 324.284,264.860 325.405,265.867 328.248,268.138 328.683,268.481 331.961,270.728 333.139,271.416 335.239,272.626 338.517,274.189 339.880,274.694 341.795,275.394 345.073,276.240 348.351,276.723 351.629,276.819 354.907,276.502 358.185,275.745 360.993,274.694 361.463,274.506 364.741,272.692 366.512,271.416 368.019,270.248 370.226,268.138 371.297,267.028 373.055,264.860 374.575,262.812 375.362,261.582 377.273,258.304 377.853,257.204 378.866,255.026 380.229,251.748 381.131,249.291 381.401,248.470 382.351,245.192 383.163,241.914 383.842,238.637 384.390,235.359 384.409,235.209 384.780,232.081 385.054,228.803 385.216,225.525 385.267,222.247 385.209,218.969 385.043,215.691 384.771,212.413 384.409,209.261 "
           id="polyline47"
           style="fill:none;stroke:#0080cc;stroke-width:2pt;stroke-dasharray:none" />
        <g
           id="g49" />
      </g>
      <g
         clip-path="url(#ID000000)"
         id="g51">
        <polyline
           points="358.185,205.920 358.178,205.857 357.515,202.579 356.606,199.301 355.465,196.023 354.907,194.702 353.958,192.745 352.116,189.467 351.629,188.709 349.735,186.189 348.351,184.539 346.706,182.911 345.073,181.451 342.515,179.633 341.795,179.168 338.517,177.646 335.239,176.727 331.961,176.488 328.683,177.021 325.405,178.434 323.745,179.633 322.127,181.100 320.719,182.911 318.849,186.118 318.817,186.189 317.751,189.467 317.093,192.745 316.796,196.023 316.819,199.301 317.127,202.579 317.688,205.857 318.476,209.135 318.849,210.352 319.574,212.413 320.941,215.691 322.127,218.195 322.554,218.969 324.576,222.247 325.405,223.479 327.042,225.525 328.683,227.436 330.129,228.803 331.961,230.428 334.384,232.081 335.239,232.632 338.517,234.057 341.795,234.774 345.073,234.682 348.351,233.660 350.848,232.081 351.629,231.485 353.942,228.803 354.907,227.390 355.856,225.525 357.121,222.247 357.994,218.969 358.185,217.782 358.457,215.691 358.615,212.413 358.518,209.135 358.185,205.920 "
           id="polyline53"
           style="fill:none;stroke:#0080cc;stroke-width:2pt;stroke-dasharray:none" />
        <g
           id="g55" />
      </g>
      <g
         clip-path="url(#ID000000)"
         id="g57">
        <g
           id="g59">
          <polyline
             points="188.972,462.800 196.972,462.800 "
             id="polyline61"
             style="fill:#fcfcfc;fill-opacity:1;stroke:#fcfcfc;stroke-width:0.5pt;stroke-dasharray:none;stroke-opacity:1" />
          <polyline
             points="192.972,458.800 192.972,466.800 "
             id="polyline63"
             style="fill:#fcfcfc;fill-opacity:1;stroke:#fcfcfc;stroke-width:0.5pt;stroke-dasharray:none;stroke-opacity:1" />
          <polyline
             points="190.172,465.600 195.772,460.000 "
             id="polyline65"
             style="fill:#fcfcfc;fill-opacity:1;stroke:#fcfcfc;stroke-width:0.5pt;stroke-dasharray:none;stroke-opacity:1" />
          <polyline
             points="190.172,460.000 195.772,465.600 "
             id="polyline67"
             style="fill:#fcfcfc;fill-opacity:1;stroke:#fcfcfc;stroke-width:0.5pt;stroke-dasharray:none;stroke-opacity:1" />
        </g>
      </g>
      <g
         clip-path="url(#ID000000)"
         id="g69">
        <g
           id="g71">
          <polyline
             points="486.128,39.000 494.128,39.000 "
             id="polyline73"
             style="fill:#fcfcfc;fill-opacity:1;stroke:#fcfcfc;stroke-width:0.5pt;stroke-dasharray:none;stroke-opacity:1" />
          <polyline
             points="490.128,35.000 490.128,43.000 "
             id="polyline75"
             style="fill:#fcfcfc;fill-opacity:1;stroke:#fcfcfc;stroke-width:0.5pt;stroke-dasharray:none;stroke-opacity:1" />
          <polyline
             points="487.328,41.800 492.928,36.200 "
             id="polyline77"
             style="fill:#fcfcfc;fill-opacity:1;stroke:#fcfcfc;stroke-width:0.5pt;stroke-dasharray:none;stroke-opacity:1" />
          <polyline
             points="487.328,36.200 492.928,41.800 "
             id="polyline79"
             style="fill:#fcfcfc;fill-opacity:1;stroke:#fcfcfc;stroke-width:0.5pt;stroke-dasharray:none;stroke-opacity:1" />
        </g>
      </g>
      <g
         clip-path="url(#ID000000)"
         id="g81">
        <polyline
           points="282.490,391.096 301.284,376.975 315.422,364.349 326.058,352.921 334.024,342.476 339.936,332.854 344.265,323.936 347.367,315.630 349.521,307.866 350.943,300.591 351.801,293.762 352.228,287.346 352.327,281.317 352.179,275.651 351.850,270.330 351.388,265.337 350.833,260.658 350.216,256.279 349.561,252.187 348.887,248.368 348.207,244.811 347.533,241.504 346.873,238.433 346.234,235.587 345.618,232.953 345.031,230.519 344.472,228.274 343.945,226.207 343.448,224.304 342.982,222.556 342.546,220.952 342.140,219.482 341.763,218.136 341.412,216.904 341.088,215.779 340.788,214.751 340.512,213.813 340.257,212.958 340.023,212.179 339.808,211.469 339.611,210.823 339.430,210.236 339.264,209.701 339.113,209.216 338.975,208.774 338.848,208.373 338.733,208.010 338.628,207.679 338.532,207.379 338.445,207.107 338.366,206.860 338.294,206.637 338.228,206.434 338.168,206.250 338.114,206.083 338.065,205.932 338.020,205.794 337.979,205.670 337.942,205.558 337.909,205.456 337.878,205.363 337.851,205.280 337.826,205.204 337.803,205.135 337.782,205.073 337.764,205.017 337.747,204.966 337.732,204.919 337.718,204.878 337.705,204.840 337.694,204.805 337.683,204.774 337.674,204.746 337.666,204.721 337.658,204.697 337.651,204.677 337.645,204.658 337.639,204.641 337.634,204.625 337.629,204.611 337.625,204.598 337.621,204.587 337.618,204.576 337.614,204.567 337.612,204.558 337.609,204.551 337.607,204.544 337.604,204.537 337.603,204.531 337.601,204.526 337.599,204.522 337.598,204.517 337.597,204.513 337.595,204.510 337.594,204.507 337.593,204.504 337.592,204.501 337.592,204.499 337.591,204.497 337.590,204.495 337.590,204.493 337.589,204.492 337.589,204.490 337.588,204.489 337.588,204.488 337.588,204.487 337.587,204.486 337.587,204.485 337.587,204.484 337.586,204.483 337.586,204.483 337.586,204.482 337.586,204.482 337.586,204.481 337.586,204.481 337.585,204.480 337.585,204.480 337.585,204.480 337.585,204.479 337.585,204.479 337.585,204.479 337.585,204.479 337.585,204.478 337.585,204.478 337.585,204.478 337.585,204.478 337.585,204.478 337.585,204.478 337.585,204.478 337.585,204.477 337.584,204.477 337.584,204.477 337.584,204.477 337.584,204.477 337.584,204.477 337.584,204.477 337.584,204.477 337.584,204.477 337.584,204.477 337.584,204.477 337.584,204.477 337.584,204.477 337.584,204.477 337.584,204.477 337.584,204.477 337.584,204.477 337.584,204.477 337.584,204.477 337.584,204.477 337.584,204.477 337.584,204.477 337.584,204.477 337.584,204.477 337.584,204.477 337.584,204.477 337.584,204.477 337.584,204.477 337.584,204.477 337.584,204.477 337.584,204.477 337.584,204.477 337.584,204.477 337.584,204.477 337.584,204.477 337.584,204.477 337.584,204.477 337.584,204.477 337.584,204.477 337.584,204.477 337.584,204.477 337.584,204.477 337.584,204.477 337.584,204.477 337.584,204.477 337.584,204.477 337.584,204.477 337.584,204.477 337.584,204.477 337.584,204.477 337.584,204.477 337.584,204.477 337.584,204.477 337.584,204.477 337.584,204.477 337.584,204.477 337.584,204.477 337.584,204.477 337.584,204.477 337.584,204.477 337.584,204.477 337.584,204.477 337.584,204.477 337.584,204.477 337.584,204.477 337.584,204.477 337.584,204.477 337.584,204.477 337.584,204.477 337.584,204.477 337.584,204.477 337.584,204.477 337.584,204.477 "
           id="polyline83"
           style="fill:none;stroke:#00c745;stroke-width:3pt;stroke-dasharray:none" />
        <g
           id="g85" />
      </g>
      <g
         clip-path="url(#ID000000)"
         id="g87">
        <polyline
           points="282.490,391.096 283.490,384.512 284.491,378.238 285.485,372.217 286.467,366.412 287.434,360.795 288.382,355.344 289.310,350.045 290.218,344.885 291.105,339.857 291.971,334.957 292.817,330.180 293.643,325.526 294.451,320.993 295.241,316.584 296.015,312.298 296.773,308.138 297.518,304.104 298.249,300.199 298.968,296.424 299.676,292.778 300.374,289.263 301.063,285.878 301.743,282.623 302.414,279.494 303.078,276.491 303.734,273.611 304.382,270.851 305.023,268.207 305.657,265.677 306.284,263.255 306.903,260.939 307.515,258.723 308.119,256.605 308.716,254.579 309.305,252.642 309.886,250.790 310.459,249.019 311.024,247.324 311.580,245.704 312.129,244.153 312.669,242.669 313.200,241.248 313.723,239.888 314.237,238.585 314.743,237.337 315.240,236.141 315.729,234.994 316.208,233.895 316.680,232.840 317.142,231.828 317.596,230.857 318.042,229.924 318.479,229.029 318.907,228.169 319.328,227.343 319.740,226.548 320.144,225.785 320.539,225.051 320.927,224.345 321.307,223.665 321.679,223.012 322.044,222.382 322.401,221.776 322.750,221.193 323.092,220.631 323.427,220.090 323.755,219.568 324.075,219.066 324.389,218.581 324.696,218.114 324.997,217.663 325.290,217.229 325.578,216.810 325.859,216.405 326.133,216.015 326.402,215.639 326.665,215.275 326.922,214.924 327.173,214.585 327.418,214.258 327.658,213.942 327.893,213.637 328.122,213.343 328.346,213.058 328.565,212.783 328.779,212.517 328.988,212.260 329.192,212.011 329.392,211.771 329.587,211.539 329.777,211.315 329.963,211.098 330.145,210.888 330.323,210.685 330.496,210.489 330.666,210.299 330.831,210.116 330.993,209.938 331.151,209.767 331.305,209.600 331.455,209.440 331.602,209.284 331.746,209.133 331.886,208.988 332.023,208.847 332.157,208.710 332.287,208.578 332.415,208.450 332.539,208.326 332.661,208.206 332.780,208.090 332.895,207.978 333.008,207.869 333.119,207.764 333.227,207.662 333.332,207.563 333.435,207.468 333.535,207.375 333.633,207.285 333.728,207.198 333.822,207.114 333.913,207.033 334.002,206.954 334.089,206.877 334.173,206.803 334.256,206.732 334.337,206.662 334.415,206.595 334.492,206.530 334.567,206.466 334.640,206.405 334.712,206.346 334.782,206.288 334.850,206.233 334.916,206.179 334.981,206.126 335.044,206.076 335.106,206.027 335.166,205.979 335.225,205.933 335.283,205.888 335.339,205.845 335.393,205.803 335.447,205.763 335.499,205.723 335.550,205.685 335.599,205.648 335.648,205.612 335.695,205.578 335.741,205.544 335.786,205.511 335.830,205.480 335.873,205.449 335.914,205.419 335.955,205.390 335.995,205.362 336.034,205.335 336.072,205.309 336.109,205.284 336.145,205.259 336.180,205.235 336.214,205.212 336.248,205.190 336.280,205.168 336.312,205.147 336.343,205.126 336.374,205.107 336.403,205.087 336.432,205.069 336.460,205.051 336.488,205.033 336.515,205.016 336.541,205.000 336.566,204.984 336.591,204.968 336.616,204.953 336.639,204.939 336.663,204.925 336.685,204.911 336.707,204.898 336.729,204.885 336.750,204.873 336.770,204.861 336.790,204.849 336.810,204.838 336.829,204.827 336.847,204.816 336.865,204.806 336.883,204.796 336.900,204.786 336.917,204.776 336.933,204.767 336.949,204.759 336.965,204.750 336.980,204.742 336.995,204.734 337.009,204.726 337.023,204.718 337.037,204.711 337.051,204.704 337.064,204.697 "
           id="polyline89"
           style="fill:none;stroke:#dd0f23;stroke-width:3pt;stroke-dasharray:none" />
        <g
           id="g91" />
        <path
           style="fill:#dd0f23;fill-opacity:1;fill-rule:evenodd;stroke:#000000;stroke-width:0;stroke-linecap:butt;stroke-linejoin:miter;stroke-miterlimit:4;stroke-dasharray:none;stroke-opacity:1"
           d="M 305.57946,305.07958 L 301.83405,281.9436 L 290.34426,300.3639 C 290.34426,300.3639 291.2847,300.0989 291.88198,299.882 C 292.47927,299.66511 294.34048,299.50781 295.00066,299.51885 C 295.66087,299.5299 295.72385,299.46558 296.58164,299.6376 C 297.4394,299.80961 297.80426,299.76956 298.65765,300.05687 C 299.51104,300.34418 300.6032,301.01235 301.27196,301.37733 C 301.94074,301.74231 302.04931,301.78258 302.67026,302.24674 C 303.29123,302.7109 304.09019,303.41647 304.54611,303.87787 C 305.00202,304.33927 305.57946,305.07958 305.57946,305.07958 z "
           id="path2504"
           sodipodi:nodetypes="ccczzzzzzzc" />
        <path
           style="fill:#00c745;fill-opacity:1;fill-rule:evenodd;stroke:#000000;stroke-width:0;stroke-linecap:butt;stroke-linejoin:miter;stroke-miterlimit:4;stroke-dasharray:none;stroke-opacity:1"
           d="M 349.72829,332.40763 L 349.21442,308.82258 L 335.3613,324.57085 C 335.3613,324.57085 336.32451,324.50656 336.94293,324.41784 C 337.56136,324.32913 339.41722,324.56374 340.06633,324.71282 C 340.71546,324.86192 340.78636,324.81172 341.60811,325.16082 C 342.42983,325.5099 342.7949,325.54682 343.59648,326.00862 C 344.39806,326.47042 345.38264,327.35755 345.99159,327.85724 C 346.60057,328.35694 346.70203,328.41936 347.25025,329.00679 C 347.79848,329.59423 348.48898,330.45684 348.87493,331.007 C 349.26088,331.55716 349.72829,332.40763 349.72829,332.40763 z "
           id="path2506"
           sodipodi:nodetypes="ccczzzzzzzc" />
      </g>
      <g
         clip-path="url(#ID000000)"
         id="g105">
        <polyline
           points="285.440,391.096 285.425,390.801 285.381,390.510 285.308,390.224 285.207,389.947 285.079,389.681 284.925,389.430 284.746,389.195 284.545,388.980 284.324,388.785 284.084,388.613 283.828,388.467 283.559,388.346 283.279,388.253 282.991,388.189 282.698,388.153 282.404,388.147 282.110,388.170 281.819,388.223 281.536,388.304 281.262,388.413 281.000,388.549 280.753,388.711 280.524,388.896 280.314,389.103 280.126,389.330 279.962,389.575 279.822,389.835 279.710,390.108 279.625,390.390 279.569,390.680 279.542,390.973 279.545,391.268 279.576,391.561 279.637,391.850 279.727,392.131 279.844,392.401 279.988,392.659 280.156,392.901 280.348,393.125 280.561,393.329 280.794,393.510 281.043,393.667 281.307,393.799 281.583,393.903 281.868,393.980 282.159,394.027 282.453,394.046 282.748,394.035 283.040,393.994 283.327,393.925 283.605,393.827 283.872,393.702 284.125,393.551 284.362,393.376 284.580,393.177 284.778,392.958 284.952,392.720 285.102,392.467 285.226,392.199 285.322,391.920 285.391,391.633 285.430,391.341 "
           id="polyline107"
           style="fill:#0080cc;fill-opacity:1;stroke:none;stroke-width:0.5pt;stroke-dasharray:none;stroke-opacity:1" />
      </g>
      <g
         clip-path="url(#ID000000)"
         id="g109">
        <polyline
           points="340.014,204.697 339.999,204.402 339.955,204.111 339.882,203.825 339.781,203.548 339.653,203.282 339.499,203.031 339.320,202.796 339.119,202.580 338.898,202.386 338.658,202.214 338.402,202.068 338.133,201.947 337.853,201.854 337.565,201.790 337.272,201.754 336.978,201.748 336.684,201.771 336.394,201.824 336.110,201.905 335.836,202.014 335.574,202.150 335.328,202.312 335.098,202.497 334.888,202.704 334.700,202.931 334.536,203.176 334.397,203.436 334.284,203.709 334.199,203.991 334.143,204.280 334.116,204.574 334.119,204.869 334.151,205.162 334.212,205.451 334.301,205.732 334.418,206.002 334.562,206.260 334.730,206.502 334.922,206.726 335.135,206.930 335.368,207.111 335.617,207.268 335.881,207.400 336.157,207.504 336.442,207.581 336.733,207.628 337.027,207.647 337.322,207.636 337.614,207.595 337.901,207.526 338.179,207.428 338.446,207.303 338.699,207.152 338.936,206.977 339.155,206.778 339.352,206.559 339.526,206.321 339.676,206.067 339.800,205.800 339.896,205.521 339.965,205.234 340.004,204.942 "
           id="polyline111"
           style="fill:#0080cc;fill-opacity:1;stroke:none;stroke-width:0.5pt;stroke-dasharray:none;stroke-opacity:1" />
      </g>
      <text
         xml:space="preserve"
         style="font-size:32.80037689px;font-style:italic;font-variant:normal;font-weight:normal;font-stretch:normal;text-align:start;line-height:100%;writing-mode:lr-tb;text-anchor:start;fill:#000000;fill-opacity:1;stroke:none;stroke-width:1px;stroke-linecap:butt;stroke-linejoin:miter;stroke-opacity:1;font-family:Sans"
         x="381.97156"
         y="191.00716"
         id="text1415"
         sodipodi:linespacing="100%"
         transform="scale(0.899971,1.111147)"><tspan
           sodipodi:role="line"
           id="tspan1417"
           x="381.97156"
           y="191.00716">x</tspan></text>
      <text
         xml:space="preserve"
         style="font-size:32.80037689px;font-style:italic;font-variant:normal;font-weight:normal;font-stretch:normal;text-align:start;line-height:100%;writing-mode:lr-tb;text-anchor:start;fill:#000000;fill-opacity:1;stroke:none;stroke-width:1px;stroke-linecap:butt;stroke-linejoin:miter;stroke-opacity:1;font-family:Sans"
         x="297.66806"
         y="377.52069"
         id="text1419"
         sodipodi:linespacing="100%"
         transform="scale(0.899971,1.111147)"><tspan
           sodipodi:role="line"
           id="tspan1421"
           x="297.66806"
           y="377.52069">x</tspan></text>
      <text
         xml:space="preserve"
         style="font-size:20.50023642;font-style:italic;font-variant:normal;font-weight:normal;font-stretch:normal;text-align:start;line-height:100%;writing-mode:lr;text-anchor:start;fill:#000000;fill-opacity:1;stroke:none;stroke-width:1px;stroke-linecap:butt;stroke-linejoin:miter;stroke-opacity:1;font-family:Sans"
         x="315.40417"
         y="390.41971"
         id="text1423"
         sodipodi:linespacing="100%"
         transform="scale(0.899971,1.111147)"><tspan
           sodipodi:role="line"
           id="tspan1425"
           x="315.40417"
           y="390.41971">0</tspan></text>
    </g>
  </g>
</svg>
